# Blender v2.79 (sub 0) OBJ File: ''
# www.blender.org
mtllib Bedobj.mtl
o Cube.002
v 1.000000 -0.931022 -2.070681
v 1.000000 -0.931022 -2.249140
v -1.000000 -0.931022 -2.249140
v -1.000000 -0.931022 -2.070681
v 1.000000 1.198684 -2.070681
v 0.999999 1.198684 -2.249140
v -1.000000 1.198684 -2.249140
v -1.000000 1.198684 -2.070681
vt 0.000000 0.000000
vt 0.000000 1.000000
vt 1.000000 1.000000
vt 1.000000 0.000000
vt 0.000000 0.000000
vt 0.000000 1.000000
vt 1.000000 1.000000
vt 1.000000 0.000000
vt 0.000000 1.000000
vt 1.000000 1.000000
vt 1.000000 0.000000
vt 0.000000 0.000000
vt 0.000000 1.000000
vt 1.000000 0.000000
vt 0.000000 0.000000
vt 1.000000 1.000000
vt 1.000000 0.000000
vt 0.000000 1.000000
vt 1.000000 1.000000
vt 1.000000 0.000000
vn 0.0000 -1.0000 -0.0000
vn 0.0000 1.0000 0.0000
vn 1.0000 0.0000 -0.0000
vn 0.0000 0.0000 -1.0000
vn -1.0000 -0.0000 0.0000
vn 0.0000 0.0000 1.0000
usemtl Material
s off
f 1/1/1 4/2/1 3/3/1 2/4/1
f 5/5/2 6/6/2 7/7/2 8/8/2
f 1/1/3 2/9/3 6/10/3 5/11/3
f 2/12/4 3/13/4 7/7/4 6/14/4
f 3/15/5 4/2/5 8/16/5 7/17/5
f 5/5/6 8/18/6 4/19/6 1/20/6
o Cube.001
v 1.000000 -0.931022 2.212308
v 1.000000 -0.931022 2.033849
v -1.000000 -0.931022 2.033849
v -1.000000 -0.931022 2.212308
v 1.000000 1.198684 2.212308
v 0.999999 1.198684 2.033849
v -1.000000 1.198684 2.033849
v -1.000000 1.198684 2.212308
vt 0.000000 0.000000
vt 0.000000 1.000000
vt 1.000000 1.000000
vt 1.000000 0.000000
vt 0.000000 0.000000
vt 0.000000 1.000000
vt 1.000000 1.000000
vt 1.000000 0.000000
vt 0.000000 1.000000
vt 1.000000 1.000000
vt 1.000000 0.000000
vt 0.000000 0.000000
vt 0.000000 1.000000
vt 1.000000 0.000000
vt 0.000000 0.000000
vt 1.000000 1.000000
vt 1.000000 0.000000
vt 0.000000 1.000000
vt 1.000000 1.000000
vt 1.000000 0.000000
vn 0.0000 -1.0000 -0.0000
vn 0.0000 1.0000 0.0000
vn 1.0000 0.0000 -0.0000
vn 0.0000 0.0000 -1.0000
vn -1.0000 -0.0000 0.0000
vn 0.0000 0.0000 1.0000
usemtl Material
s off
f 9/21/7 12/22/7 11/23/7 10/24/7
f 13/25/8 14/26/8 15/27/8 16/28/8
f 9/21/9 10/29/9 14/30/9 13/31/9
f 10/32/10 11/33/10 15/27/10 14/34/10
f 11/35/11 12/22/11 16/36/11 15/37/11
f 13/25/12 16/38/12 12/39/12 9/40/12
o Cube
v 0.940445 -0.282328 -2.144666
v 0.940445 -0.282328 2.144666
v -0.940445 -0.282328 2.144666
v -0.940444 -0.282328 -2.144667
v 0.940445 0.054975 -2.144665
v 0.940444 0.054975 2.144668
v -0.940445 0.054975 2.144666
v -0.940445 0.054975 -2.144666
vt 0.000000 0.000000
vt 1.000000 0.000000
vt 1.000000 1.000000
vt 0.000000 1.000000
vt 0.000000 0.000000
vt 1.000000 0.000000
vt 1.000000 1.000000
vt 0.000000 1.000000
vt 1.000000 0.000000
vt 1.000000 1.000000
vt 0.000000 1.000000
vt 0.000000 0.000000
vt 1.000000 0.000000
vt 0.000000 1.000000
vt 0.000000 0.000000
vt 1.000000 0.000000
vt 1.000000 1.000000
vt 1.000000 0.000000
vt 1.000000 1.000000
vt 0.000000 1.000000
vn 0.0000 -1.0000 -0.0000
vn 0.0000 1.0000 -0.0000
vn 1.0000 0.0000 0.0000
vn -0.0000 -0.0000 1.0000
vn -1.0000 -0.0000 -0.0000
vn 0.0000 0.0000 -1.0000
usemtl Material
s off
f 17/41/13 18/42/13 19/43/13 20/44/13
f 21/45/14 24/46/14 23/47/14 22/48/14
f 17/41/15 21/49/15 22/50/15 18/51/15
f 18/52/16 22/53/16 23/47/16 19/54/16
f 19/55/17 23/56/17 24/57/17 20/44/17
f 21/45/18 17/58/18 20/59/18 24/60/18
