# Blender v2.79 (sub 0) OBJ File: ''
# www.blender.org
mtllib Hammer.mtl
o Cube.001
v 0.073884 -0.470840 -0.093035
v 0.073884 -0.470840 0.093035
v -0.073884 -0.470840 0.093035
v -0.073884 -0.470840 -0.093035
v -0.073884 0.518131 0.093035
v 0.073884 0.518131 0.093035
v 0.326170 0.554351 0.117580
v -0.326170 0.554351 0.117580
v 0.073884 0.518131 -0.093035
v -0.073884 0.518131 -0.093035
v 0.326170 0.729166 0.117580
v -0.326170 0.729166 0.117580
v 0.326171 0.554351 -0.117580
v -0.326170 0.554351 -0.117580
v 0.326171 0.729166 -0.117580
v -0.326170 0.729166 -0.117580
v 0.574048 0.621396 -0.117580
v 0.574048 0.621396 0.117580
v 0.574048 0.662121 -0.117580
v 0.574048 0.662121 0.117580
vt 0.251781 0.052774
vt 0.251781 0.000000
vt 0.326167 0.000000
vt 0.326167 0.052774
vt 0.779333 0.095286
vt 0.704947 0.095286
vt 0.577947 0.073165
vt 0.906333 0.073165
vt 1.000000 0.000000
vt 1.000000 0.500000
vt 0.906333 0.500000
vt 0.906333 0.000000
vt 0.704947 0.509198
vt 0.779333 0.509198
vt 0.906333 1.000000
vt 0.906333 0.500000
vt 1.000000 0.500000
vt 1.000000 1.000000
vt 0.251781 0.466686
vt 0.326167 0.466686
vt 0.577947 0.000000
vt 0.906333 0.000000
vt 0.704947 0.148059
vt 0.577947 0.139862
vt 0.326167 0.413912
vt 0.453166 0.422110
vt 0.453166 0.488806
vt 0.124780 0.488806
vt 0.571545 0.637891
vt 0.571545 0.964826
vt 0.453166 0.964826
vt 0.453166 0.637891
vt 0.453166 0.111801
vt 0.453166 0.045105
vt 0.571545 0.628089
vt 0.571545 0.509198
vt 0.659546 0.509198
vt 0.659546 0.628089
vt 0.453166 0.561971
vt 0.124780 0.561971
vt 0.020501 0.561971
vt 0.020501 0.680862
vt 0.000000 0.680862
vt 0.000000 0.561971
vt 0.000000 0.533911
vt 0.000000 0.516866
vt 0.453166 0.028060
vt 0.453166 0.509198
vt 0.571545 0.509198
vn 0.0000 -1.0000 -0.0000
vn 0.0000 -0.5610 0.8278
vn 1.0000 0.0000 0.0000
vn 0.0000 -0.0000 1.0000
vn -1.0000 -0.0000 0.0000
vn 0.0000 0.0000 -1.0000
vn 0.1421 -0.9899 0.0000
vn -0.1421 -0.9899 0.0000
vn 0.0000 -0.5610 -0.8278
vn 0.0000 1.0000 -0.0000
vn 0.2611 -0.9653 0.0000
vn 0.2611 0.9653 0.0000
usemtl Material.001
s 1
f 1/1/1 2/2/1 3/3/1 4/4/1
f 5/5/2 6/6/2 7/7/2 8/8/2
f 1/9/3 9/10/3 6/11/3 2/12/3
f 2/13/4 6/6/4 5/5/4 3/14/4
f 3/15/5 5/16/5 10/17/5 4/18/5
f 9/19/6 1/1/6 4/4/6 10/20/6
f 8/8/4 7/7/4 11/21/4 12/22/4
f 6/6/7 9/23/7 13/24/7 7/7/7
f 10/20/8 5/25/8 8/26/8 14/27/8
f 9/19/9 10/20/9 14/27/9 13/28/9
f 15/29/10 16/30/10 12/31/10 11/32/10
f 7/7/11 13/24/11 17/33/11 18/34/11
f 14/35/5 8/36/5 12/37/5 16/38/5
f 13/28/6 14/27/6 16/39/6 15/40/6
f 18/41/3 17/42/3 19/43/3 20/44/3
f 13/28/6 15/40/6 19/45/6 17/46/6
f 11/21/4 7/7/4 18/34/4 20/47/4
f 15/29/12 11/32/12 20/48/12 19/49/12
