# Blender v2.79 (sub 0) OBJ File: ''
# www.blender.org
mtllib Key1.mtl
o Cube
v 0.644614 -0.113725 -0.113725
v 0.644614 -0.113725 0.113725
v -0.644614 -0.113725 0.113725
v -0.644614 -0.113725 -0.113725
v 0.644615 0.113725 -0.113724
v 0.644614 0.113725 0.113725
v -0.644615 0.113725 0.113724
v -0.644614 0.113725 -0.113725
v -0.847710 -0.113725 0.113725
v -0.847710 -0.113725 -0.113725
v -0.847710 0.113725 0.113724
v -0.847710 0.113725 -0.113725
v -1.018842 -0.113725 0.113725
v -1.018841 -0.113725 -0.113725
v -1.018842 0.113725 0.113724
v -1.018841 0.113725 -0.113725
v -1.194409 -0.113725 0.113724
v -1.194409 -0.113725 -0.113725
v -1.194409 0.113724 0.113724
v -1.194409 0.113724 -0.113725
v -0.644614 -0.427992 0.113725
v -0.644614 -0.427992 -0.113725
v -0.847710 -0.427992 0.113725
v -0.847710 -0.427992 -0.113725
v -1.018841 -0.427992 0.113725
v -1.018841 -0.427992 -0.113725
v -1.194409 -0.427992 0.113724
v -1.194409 -0.427992 -0.113725
v 0.810782 -0.113724 -0.113724
v 0.810782 -0.113724 0.113725
v 0.810782 0.113725 -0.113724
v 0.810781 0.113725 0.113725
v 0.834009 0.523807 -0.113724
v 0.834008 0.523807 0.113725
v 1.000177 0.523807 -0.113724
v 1.000176 0.523807 0.113725
v 0.833669 -0.441186 -0.113725
v 0.833669 -0.441186 0.113725
v 0.999836 -0.441186 -0.113724
v 0.999836 -0.441186 0.113725
v 1.399164 0.752459 -0.173732
v 1.399164 0.752460 0.173738
v 1.399124 0.543523 -0.173731
v 1.399124 0.543524 0.173738
v 1.398289 -0.669838 -0.173732
v 1.398289 -0.669838 0.173738
v 1.398388 -0.460903 -0.173731
v 1.398388 -0.460903 0.173738
v 2.002041 0.526759 -0.173732
v 2.002042 0.526759 0.173738
v 1.793106 0.526798 -0.173731
v 1.793107 0.526798 0.173738
v 2.001234 -0.455828 -0.173732
v 2.001234 -0.455828 0.173738
v 1.792303 -0.454508 -0.173731
v 1.792303 -0.454508 0.173738
v 2.220809 0.165162 -0.112821
v 2.220810 0.165162 0.112827
v 2.008700 0.165172 -0.112820
v 2.008701 0.165172 0.112827
v 2.219989 -0.093730 -0.112821
v 2.219989 -0.093730 0.112827
v 2.007885 -0.093383 -0.112820
v 2.007885 -0.093383 0.112827
vn 0.0000 -1.0000 0.0000
vn 0.0000 1.0000 0.0000
vn -0.8660 -0.5000 0.0000
vn -0.0000 -0.0000 1.0000
vn 0.0000 0.0000 -1.0000
vn -1.0000 -0.0000 -0.0000
vn 1.0000 0.0000 0.0000
vn 0.9079 -0.4193 0.0000
vn -0.1025 0.0816 0.9914
vn -0.9079 0.4193 -0.0000
vn -0.1024 -0.0814 0.9914
vn 0.8660 0.5000 0.0000
vn -0.0424 -0.9991 0.0000
vn -0.3751 0.9270 -0.0000
vn 0.0494 0.9988 0.0000
vn -0.1024 -0.0814 -0.9914
vn 0.0494 -0.9988 0.0000
vn -0.1025 0.0816 -0.9914
vn -0.3754 -0.9269 -0.0000
vn -0.8586 0.5126 0.0000
vn 0.0007 0.1657 0.9862
vn 0.3345 -0.9424 -0.0000
vn 0.3506 0.9365 -0.0000
vn -0.0162 0.9999 0.0000
vn -0.0000 -0.1661 -0.9861
vn -0.8589 -0.5121 0.0000
vn 0.0007 0.1657 -0.9862
vn 0.8559 -0.5171 -0.0000
vn -0.0000 -0.1661 0.9861
vn 0.8556 0.5176 -0.0000
vn 1.0000 -0.0032 -0.0000
vn -1.0000 0.0032 0.0000
usemtl Material
s off
f 1//1 2//1 3//1 4//1
f 5//2 8//2 7//2 6//2
f 2//3 1//3 37//3 38//3
f 2//4 6//4 7//4 3//4
f 7//2 8//2 12//2 11//2
f 5//5 1//5 4//5 8//5
f 12//5 10//5 14//5 16//5
f 8//5 4//5 10//5 12//5
f 10//5 4//5 22//5 24//5
f 3//4 7//4 11//4 9//4
f 16//5 14//5 18//5 20//5
f 10//1 9//1 13//1 14//1
f 11//2 12//2 16//2 15//2
f 9//4 11//4 15//4 13//4
f 17//6 19//6 20//6 18//6
f 14//7 13//7 25//7 26//7
f 15//2 16//2 20//2 19//2
f 13//4 15//4 19//4 17//4
f 22//1 21//1 23//1 24//1
f 26//1 25//1 27//1 28//1
f 4//7 3//7 21//7 22//7
f 13//4 17//4 27//4 25//4
f 9//6 10//6 24//6 23//6
f 18//5 14//5 26//5 28//5
f 3//4 9//4 23//4 21//4
f 17//6 18//6 28//6 27//6
f 29//7 31//7 32//7 30//7
f 32//8 31//8 35//8 36//8
f 6//4 2//4 30//4 32//4
f 1//5 5//5 31//5 29//5
f 40//9 38//9 46//9 48//9
f 6//4 32//4 36//4 34//4
f 5//10 6//10 34//10 33//10
f 31//5 5//5 33//5 35//5
f 34//11 36//11 44//11 42//11
f 1//5 29//5 39//5 37//5
f 29//12 30//12 40//12 39//12
f 30//4 2//4 38//4 40//4
f 45//5 47//5 55//5 53//5
f 44//13 43//13 51//13 52//13
f 33//14 34//14 42//14 41//14
f 39//15 40//15 48//15 47//15
f 35//16 33//16 41//16 43//16
f 36//17 35//17 43//17 44//17
f 37//18 39//18 47//18 45//18
f 38//19 37//19 45//19 46//19
f 55//20 56//20 64//20 63//20
f 56//21 54//21 62//21 64//21
f 46//22 45//22 53//22 54//22
f 42//4 44//4 52//4 50//4
f 41//23 42//23 50//23 49//23
f 48//4 46//4 54//4 56//4
f 47//24 48//24 56//24 55//24
f 43//5 41//5 49//5 51//5
f 51//25 49//25 57//25 59//25
f 52//26 51//26 59//26 60//26
f 53//27 55//27 63//27 61//27
f 54//28 53//28 61//28 62//28
f 50//29 52//29 60//29 58//29
f 49//30 50//30 58//30 57//30
f 57//31 58//31 62//31 61//31
f 61//5 63//5 59//5 57//5
f 63//32 64//32 60//32 59//32
f 64//4 62//4 58//4 60//4
