# Blender v2.79 (sub 0) OBJ File: ''
# www.blender.org
mtllib Kusachki.mtl
o Torus.001
v 0.456461 -0.564260 0.715646
v 0.456748 -0.564260 0.309454
v 0.537957 -0.493906 0.350131
v 0.537728 -0.493906 0.675084
v 0.456690 -0.423551 0.390693
v 0.456518 -0.423551 0.634408
v 0.375480 -0.493906 0.350016
v 0.375251 -0.493906 0.674970
v 0.456891 -0.212488 0.106358
v 0.538072 -0.212488 0.187654
v 0.456776 -0.212488 0.268835
v 0.375595 -0.212488 0.187539
v 0.456748 0.139285 0.309454
v 0.537957 0.068930 0.350131
v 0.456690 -0.001424 0.390692
v 0.375480 0.068930 0.350016
v 0.456461 0.139285 0.715646
v 0.537728 0.068930 0.675084
v 0.456518 -0.001424 0.634408
v 0.375251 0.068930 0.674969
v 0.409246 -0.049295 0.863979
v 0.456339 -0.008497 0.887567
v 0.456372 -0.090093 0.840457
v 0.503465 -0.049295 0.864045
v 0.409246 -0.375680 0.863979
v 0.456339 -0.416478 0.887567
v 0.503465 -0.375680 0.864045
v 0.456372 -0.334882 0.840457
v 0.457611 0.480563 -0.912683
v 0.457046 0.480563 -0.112418
v 0.617155 0.341953 -0.192331
v 0.617607 0.341953 -0.832543
v 0.457159 0.203343 -0.272471
v 0.457498 0.203343 -0.752630
v 0.297049 0.341953 -0.192557
v 0.297501 0.341953 -0.832770
v 0.456763 -0.212488 0.287715
v 0.616929 -0.212488 0.127775
v 0.456989 -0.212488 -0.032391
v 0.296823 -0.212488 0.127549
v 0.457046 -0.905538 -0.112418
v 0.617155 -0.766928 -0.192331
v 0.457159 -0.628318 -0.272471
v 0.297049 -0.766928 -0.192557
v 0.457611 -0.905538 -0.912683
v 0.617607 -0.766928 -0.832543
v 0.457498 -0.628318 -0.752630
v 0.297501 -0.766928 -0.832770
v 0.365003 -0.534004 -1.205054
v 0.457850 -0.614384 -1.251395
v 0.457785 -0.453625 -1.158582
v 0.550631 -0.534004 -1.204923
v 0.365004 0.109029 -1.205054
v 0.457850 0.189408 -1.251395
v 0.550631 0.109029 -1.204923
v 0.457785 0.028650 -1.158582
vt 0.931443 0.240626
vt 0.902320 0.092705
vt 0.942438 0.099436
vt 0.965736 0.217773
vt 0.902320 0.650237
vt 0.918307 0.533300
vt 0.953923 0.552668
vt 0.941932 0.640372
vt 0.941938 0.812935
vt 0.953888 0.902690
vt 0.918253 0.923162
vt 0.902320 0.803489
vt 0.352790 0.615967
vt 0.329646 0.731580
vt 0.289510 0.738746
vt 0.318439 0.594230
vt 0.974272 0.000000
vt 1.000000 0.025272
vt 0.573913 0.833878
vt 0.573913 0.954713
vt 0.545117 0.939608
vt 0.545117 0.848983
vt 0.516320 0.954713
vt 0.516320 0.833878
vt 0.386575 0.819797
vt 0.360671 0.849016
vt 0.263606 0.849016
vt 0.192446 0.738746
vt 0.232582 0.731580
vt 0.289510 0.819797
vt 0.158915 0.835692
vt 0.097680 0.764839
vt 0.137401 0.755883
vt 0.183327 0.809022
vt 0.990714 0.316551
vt 0.941846 0.358538
vt 0.902320 0.351342
vt 0.967478 0.295359
vt 0.097680 0.607178
vt 0.040118 0.681342
vt 0.000000 0.674611
vt 0.071953 0.581906
vt 0.221375 0.594229
vt 0.255725 0.615968
vt 0.114956 0.645371
vt 0.150357 0.666282
vt 0.955633 0.445951
vt 0.920703 0.467892
vt 0.063416 0.799679
vt 0.029122 0.822532
vt 0.097680 0.864013
vt 0.077794 0.877265
vt 0.990714 0.520576
vt 0.970459 0.533300
vt 0.497572 0.548049
vt 0.512508 0.536298
vt 0.512508 0.555883
vt 0.497572 0.567635
vt 0.597529 0.858652
vt 0.573913 0.858652
vt 0.573913 0.833878
vt 0.597529 0.833878
vt 0.366655 0.549032
vt 0.386575 0.561638
vt 0.162798 0.581906
vt 0.183327 0.594032
vt 0.269591 0.549032
vt 0.289510 0.561638
vt 0.953923 0.722622
vt 0.930952 0.728343
vt 0.930914 0.728343
vt 0.953888 0.733821
vt 1.000000 0.282107
vt 0.980114 0.295359
vt 0.393410 0.825137
vt 0.426605 0.536298
vt 0.497572 0.572794
vt 0.471016 0.803865
vt 0.767617 0.374963
vt 0.733582 0.139592
vt 0.811838 0.157237
vt 0.837365 0.333766
vt 0.665004 0.178238
vt 0.641522 0.351049
vt 0.563496 0.370557
vt 0.594805 0.140142
vt 0.707409 0.690758
vt 0.733582 0.927234
vt 0.662504 0.965849
vt 0.629788 0.670254
vt 0.573054 0.536298
vt 0.573054 0.833878
vt 0.516320 0.804120
vt 0.516320 0.566056
vt 0.854224 0.000000
vt 0.902320 0.052543
vt 0.733582 0.475355
vt 0.686242 0.536298
vt 0.629788 0.566056
vt 0.629788 0.804120
vt 0.141758 0.581906
vt 0.000000 0.399263
vt 0.079039 0.386001
vt 0.192446 0.532116
vt 0.516156 0.536298
vt 0.393410 0.370557
vt 0.471436 0.351049
vt 0.563496 0.475355
vt 0.902320 0.552543
vt 0.811838 0.657237
vt 0.733582 0.639592
vt 0.854224 0.500000
vt 0.393410 0.039082
vt 0.270937 0.156527
vt 0.192446 0.146807
vt 0.345537 0.000000
vt 0.057376 0.107833
vt 0.124940 0.152858
vt 0.424719 0.140142
vt 0.494918 0.178238
vt 0.837365 0.833766
vt 0.767617 0.874963
vt 0.318986 0.383748
vt 0.252507 0.430832
vt 0.393410 0.521729
vt 0.354859 0.549032
vt 0.902320 0.976110
vt 0.861874 1.000000
vt 0.558377 0.048056
vt 0.517670 0.025964
vt 0.522788 0.000000
vt 0.563496 0.022091
vt 0.687756 0.025964
vt 0.692874 0.000000
vt 0.733582 0.022091
vt 0.728464 0.048056
vt 0.688570 0.536298
vt 0.733582 0.548188
vt 0.153265 0.000000
vt 0.192446 0.026109
vt 0.902320 0.476110
vt 0.861874 0.500000
vt 0.497572 0.959936
vt 0.452569 0.972271
vn 0.6547 -0.7559 0.0005
vn 0.6547 0.7559 0.0005
vn -0.6547 0.7559 -0.0005
vn -0.6546 -0.7559 -0.0005
vn 0.6551 -0.3780 -0.6542
vn 0.6542 0.3780 0.6551
vn -0.6551 0.3780 0.6542
vn -0.6542 -0.3780 -0.6551
vn 0.6551 0.3780 -0.6542
vn 0.6542 -0.3780 0.6551
vn -0.6551 -0.3780 0.6542
vn -0.6542 0.3780 -0.6551
vn -0.6547 -0.7559 -0.0005
vn -0.7012 0.5409 0.4644
vn -0.7045 -0.6518 -0.2810
vn -0.0006 -0.5000 0.8660
vn -0.0006 0.5000 0.8660
vn -0.7012 -0.5409 0.4645
vn 0.7049 -0.6518 -0.2800
vn 0.7006 0.5409 0.4654
vn 0.7049 0.6518 -0.2800
vn -0.7045 0.6517 -0.2810
vn 0.7006 -0.5409 0.4654
vn -0.7006 -0.5409 -0.4654
vn -0.7049 0.6518 0.2800
vn 0.0006 0.5000 -0.8660
vn 0.0006 -0.5000 -0.8660
vn -0.7006 0.5409 -0.4654
vn 0.7045 0.6518 0.2810
vn 0.7012 -0.5409 -0.4645
vn 0.7045 -0.6518 0.2810
vn -0.7049 -0.6518 0.2800
vn 0.7012 0.5409 -0.4645
usemtl None
s 1
f 1/1/1 2/2/1 3/3/1 4/4/1
f 4/5/2 3/6/2 5/7/2 6/8/2
f 6/9/3 5/10/3 7/11/3 8/12/3
f 8/13/4 7/14/4 2/15/4 1/16/4
f 2/2/5 9/17/5 10/18/5 3/3/5
f 3/19/6 10/20/6 11/21/6 5/22/6
f 5/22/7 11/21/7 12/23/7 7/24/7
f 7/14/8 12/25/8 9/26/8 2/15/8
f 9/27/9 13/28/9 14/29/9 10/30/9
f 10/31/10 14/32/10 15/33/10 11/34/10
f 11/35/11 15/36/11 16/37/11 12/38/11
f 12/39/12 16/40/12 13/41/12 9/42/12
f 13/28/2 17/43/2 18/44/2 14/29/2
f 14/32/1 18/45/1 19/46/1 15/33/1
f 15/36/13 19/47/13 20/48/13 16/37/13
f 16/40/3 20/49/3 17/50/3 13/41/3
f 17/50/14 20/49/14 21/51/14 22/52/14
f 20/48/15 19/47/15 23/53/15 21/54/15
f 23/55/16 24/56/16 22/57/16 21/58/16
f 25/59/17 26/60/17 27/61/17 28/62/17
f 8/13/18 1/16/18 26/63/18 25/64/18
f 19/46/19 18/45/19 24/65/19 23/66/19
f 18/44/20 17/43/20 22/67/20 24/68/20
f 4/5/21 6/8/21 28/69/21 27/70/21
f 6/9/22 8/12/22 25/71/22 28/72/22
f 1/1/23 4/4/23 27/73/23 26/74/23
f 29/75/2 30/76/2 31/77/2 32/78/2
f 32/79/1 31/80/1 33/81/1 34/82/1
f 34/83/13 33/84/13 35/85/13 36/86/13
f 36/87/3 35/88/3 30/89/3 29/90/3
f 30/91/6 37/92/6 38/93/6 31/94/6
f 31/80/5 38/95/5 39/96/5 33/81/5
f 33/84/8 39/97/8 40/98/8 35/85/8
f 35/99/7 40/100/7 37/92/7 30/91/7
f 37/101/10 41/102/10 42/103/10 38/104/10
f 38/105/9 42/106/9 43/107/9 39/108/9
f 39/109/12 43/110/12 44/111/12 40/112/12
f 40/113/11 44/114/11 41/115/11 37/116/11
f 41/102/1 45/117/1 46/118/1 42/103/1
f 42/106/2 46/119/2 47/120/2 43/107/2
f 43/110/3 47/121/3 48/122/3 44/111/3
f 44/114/13 48/123/13 45/124/13 41/115/13
f 45/124/24 48/123/24 49/125/24 50/126/24
f 48/122/25 47/121/25 51/127/25 49/128/25
f 51/129/26 52/130/26 50/131/26 49/132/26
f 53/133/27 54/134/27 55/135/27 56/136/27
f 36/87/28 29/90/28 54/137/28 53/138/28
f 47/120/29 46/119/29 52/130/29 51/129/29
f 46/118/30 45/117/30 50/139/30 52/140/30
f 32/79/31 34/82/31 56/141/31 55/142/31
f 34/83/32 36/86/32 53/133/32 56/136/32
f 29/75/33 32/78/33 55/143/33 54/144/33
