# Blender v2.79 (sub 0) OBJ File: ''
# www.blender.org
mtllib Light.mtl
o Cube
v 0.125473 0.111931 -0.125473
v 0.125473 0.111931 0.125473
v -0.125473 0.111931 0.125473
v -0.125473 0.111931 -0.125473
v 0.125473 0.168584 -0.125473
v 0.125473 0.168584 0.125473
v -0.125473 0.168584 0.125473
v -0.125473 0.168584 -0.125473
v 0.043365 0.281985 -0.043365
v 0.043365 0.281985 0.043365
v -0.043365 0.281985 -0.043365
v -0.043365 0.281985 0.043365
v 0.043365 0.575245 -0.043365
v 0.043365 0.575245 0.043365
v -0.043365 0.575245 -0.043365
v -0.043365 0.575245 0.043365
v 0.057101 0.702131 -0.057100
v 0.057100 0.702131 0.057101
v -0.057101 0.702131 -0.057101
v -0.057101 0.702131 0.057101
v 0.057100 0.621689 0.319331
v -0.057101 0.621689 0.319331
v 0.057100 0.702131 0.319331
v -0.057101 0.702131 0.319331
v 0.057101 0.621689 -0.279288
v -0.057100 0.621689 -0.279288
v 0.057101 0.702131 -0.279288
v -0.057100 0.702131 -0.279288
v 0.049341 0.623031 0.413237
v -0.049341 0.623031 0.413237
v 0.049341 0.700788 0.413237
v -0.049341 0.700788 0.413237
v 0.049341 0.623031 -0.373194
v -0.049341 0.623031 -0.373194
v 0.049341 0.700788 -0.373194
v -0.049341 0.700788 -0.373194
v 0.047433 0.921257 0.268656
v -0.047433 0.921257 0.268656
v 0.047433 0.921257 -0.228613
v -0.047433 0.921257 -0.228613
v 0.040987 0.920142 0.346662
v -0.040987 0.920142 0.346662
v 0.040987 0.920142 -0.306619
v -0.040987 0.920142 -0.306619
v 0.032141 1.029576 -0.032141
v 0.032141 1.029576 0.032141
v -0.032141 1.029576 -0.032141
v -0.032141 1.029576 0.032141
vn 0.0000 -1.0000 0.0000
vn -0.0000 0.5865 0.8100
vn 1.0000 0.0000 0.0000
vn -0.0000 -0.0000 1.0000
vn -1.0000 -0.0000 -0.0000
vn 0.0000 0.0000 -1.0000
vn 0.8100 0.5865 0.0000
vn -0.8100 0.5865 -0.0000
vn 0.0000 0.5865 -0.8100
vn -0.9942 -0.1076 -0.0000
vn -0.0000 0.0760 0.9971
vn 0.9976 -0.0645 0.0234
vn -0.9977 -0.0648 -0.0199
vn 0.9942 -0.1076 0.0000
vn 0.9966 0.0000 0.0824
vn 0.0000 1.0000 0.0000
vn 0.9977 -0.0648 -0.0199
vn -0.0000 -0.9861 0.1660
vn -0.9945 0.0631 -0.0831
vn 0.0000 -0.9812 -0.1932
vn -0.9976 -0.0645 0.0234
vn -0.0000 -0.2253 0.9743
vn -0.9966 0.0000 -0.0824
vn 0.0000 -0.9999 -0.0143
vn -0.9966 0.0000 0.0824
vn 0.9966 0.0000 -0.0824
vn -0.0000 -0.9999 0.0143
vn 0.0000 0.9999 -0.0143
vn -0.0000 0.9999 0.0143
vn 0.0000 -0.2253 -0.9743
vn 0.0000 0.2904 -0.9569
vn -0.9945 0.0631 0.0831
vn -0.0000 0.2904 0.9569
vn 0.9945 0.0631 0.0831
vn 0.9945 0.0631 -0.0831
vn 0.9971 0.0760 0.0000
vn -0.9971 0.0760 -0.0000
vn 0.0000 0.0760 -0.9971
usemtl Material
s off
f 1//1 2//1 3//1 4//1
f 7//2 6//2 10//2 12//2
f 1//3 5//3 6//3 2//3
f 2//4 6//4 7//4 3//4
f 3//5 7//5 8//5 4//5
f 5//6 1//6 4//6 8//6
f 10//3 9//3 13//3 14//3
f 6//7 5//7 9//7 10//7
f 8//8 7//8 12//8 11//8
f 5//9 8//9 11//9 9//9
f 15//10 16//10 20//10 19//10
f 11//5 12//5 16//5 15//5
f 9//6 11//6 15//6 13//6
f 12//4 10//4 14//4 16//4
f 20//11 18//11 46//11 48//11
f 17//12 13//12 25//12 27//12
f 20//13 16//13 22//13 24//13
f 14//14 13//14 17//14 18//14
f 21//15 23//15 31//15 29//15
f 18//16 20//16 24//16 23//16
f 14//17 18//17 23//17 21//17
f 16//18 14//18 21//18 22//18
f 36//19 28//19 40//19 44//19
f 13//20 15//20 26//20 25//20
f 15//21 19//21 28//21 26//21
f 19//16 17//16 27//16 28//16
f 30//4 29//4 31//4 32//4
f 33//6 34//6 36//6 35//6
f 28//22 27//22 39//22 40//22
f 26//23 28//23 36//23 34//23
f 25//24 26//24 34//24 33//24
f 24//25 22//25 30//25 32//25
f 27//26 25//26 33//26 35//26
f 22//27 21//27 29//27 30//27
f 40//28 39//28 43//28 44//28
f 37//29 38//29 42//29 41//29
f 23//30 24//30 38//30 37//30
f 35//31 36//31 44//31 43//31
f 24//32 32//32 42//32 38//32
f 32//33 31//33 41//33 42//33
f 31//34 23//34 37//34 41//34
f 27//35 35//35 43//35 39//35
f 45//16 47//16 48//16 46//16
f 18//36 17//36 45//36 46//36
f 19//37 20//37 48//37 47//37
f 17//38 19//38 47//38 45//38
