# Blender v2.79 (sub 0) OBJ File: 'DED.blend'
# www.blender.org
mtllib Leg.mtl
o Cube.003_Cube.004
v -0.990077 -0.300530 0.890188
v -0.990077 -0.107117 0.890188
v -0.990077 -0.300530 -0.387910
v -0.990077 -0.107117 -0.387910
v -0.237480 -0.300530 0.890188
v -0.237480 -0.107117 0.890188
v -0.237480 -0.300530 -0.387910
v -0.237480 -0.107117 -0.387910
v -0.757567 -0.049819 0.890188
v -0.757567 -0.049819 -0.387910
v -0.469990 -0.049819 -0.387910
v -0.469990 -0.049819 0.890188
v -0.853293 -0.298871 1.162075
v -0.853293 -0.175763 1.162075
v -0.374264 -0.175763 1.162075
v -0.374264 -0.298871 1.162075
v -0.522257 -0.139293 1.162075
v -0.705300 -0.139293 1.162075
vn -1.0000 0.0000 0.0000
vn 0.0000 0.0000 -1.0000
vn 1.0000 0.0000 0.0000
vn -0.8933 0.0000 0.4494
vn 0.0000 -1.0000 0.0000
vn 0.0000 1.0000 0.0000
vn 0.2393 0.9710 0.0000
vn -0.2393 0.9710 0.0000
vn 0.2247 0.9119 0.3433
vn 0.0000 0.0000 1.0000
vn 0.0000 -1.0000 0.0061
vn -0.2247 0.9119 0.3433
vn 0.0000 0.9499 0.3126
vn 0.8933 0.0000 0.4494
usemtl None
s off
f 1//1 2//1 4//1 3//1
f 3//2 4//2 8//2 7//2
f 7//3 8//3 6//3 5//3
f 2//4 1//4 13//4 14//4
f 3//5 7//5 5//5 1//5
f 8//2 4//2 10//2 11//2
f 11//6 10//6 9//6 12//6
f 6//7 8//7 11//7 12//7
f 4//8 2//8 9//8 10//8
f 6//9 12//9 17//9 15//9
f 16//10 15//10 14//10 13//10
f 14//10 15//10 17//10 18//10
f 1//11 5//11 16//11 13//11
f 9//12 2//12 14//12 18//12
f 12//13 9//13 18//13 17//13
f 5//14 6//14 15//14 16//14
