# Blender v2.79 (sub 0) OBJ File: 'DED.blend'
# www.blender.org
mtllib UpperLeg.mtl
o Cube.001_Cube.002
v -1.008542 1.634671 0.367034
v -1.008542 2.310714 0.057836
v -1.008542 1.325473 -0.309009
v -1.008542 2.001516 -0.618207
v -0.265146 1.634671 0.367034
v -0.265146 2.310714 0.057836
v -0.265146 1.325473 -0.309009
v -0.265146 2.001516 -0.618207
v -0.778389 2.398515 -0.235404
v -0.778389 2.280771 -0.492846
v -0.495299 2.280771 -0.492846
v -0.495299 2.398515 -0.235404
v -1.116351 1.477259 0.030299
v -1.008542 1.972692 0.212435
v -1.116351 2.158928 -0.281472
v -1.008542 1.663494 -0.463608
v -0.636844 1.277819 -0.405764
v -0.636844 1.959488 -0.717535
v -0.265146 1.663494 -0.463608
v -0.157337 1.477259 0.030299
v -0.157337 2.158928 -0.281472
v -0.265146 1.972692 0.212435
v -0.636844 1.676698 0.466362
v -0.636844 2.358368 0.154591
v -0.778389 2.339643 -0.364125
v -0.636844 2.280771 -0.492846
v -0.495299 2.339643 -0.364125
v -0.636844 2.398515 -0.235404
v -0.965147 2.347697 -0.006797
v -0.965147 2.074597 -0.603914
v -0.308541 2.347697 -0.006797
v -0.308541 2.074597 -0.603914
v -0.308541 2.211147 -0.305355
v -0.636844 2.074597 -0.603914
v -0.636844 2.347697 -0.006797
v -0.636844 2.339643 -0.364125
v -0.965147 2.211147 -0.305355
v -0.636844 2.017533 0.310477
v -0.157337 1.818093 -0.125587
v -0.636844 1.618654 -0.561650
v -1.116351 1.818093 -0.125587
v -0.982404 1.184268 0.164303
v -0.904711 1.297708 0.406973
v -0.636844 1.040540 -0.149949
v -0.904711 1.074882 -0.080222
v -0.291284 1.184268 0.164303
v -0.368978 1.074882 -0.080222
v -0.636844 1.327995 0.478555
v -0.368978 1.297708 0.406973
v -0.636844 1.186295 0.163375
vn -0.9604 -0.1159 -0.2533
vn 0.2786 -0.3995 -0.8734
vn 0.9604 0.1159 0.2533
vn -0.2786 0.3995 0.8734
vn -0.8912 -0.4458 -0.0838
vn -0.6034 0.7252 -0.3317
vn 0.0000 0.9094 -0.4159
vn 0.0000 0.9762 0.2170
vn 0.0000 0.4743 -0.8804
vn 0.6034 0.7252 -0.3317
vn 0.5033 0.8162 -0.2839
vn 0.5033 0.7485 -0.4318
vn 0.0813 0.5730 -0.8155
vn -0.0813 0.5730 -0.8155
vn -0.0813 0.9917 0.0998
vn 0.0813 0.9917 0.0998
vn -0.5033 0.7485 -0.4318
vn -0.5033 0.8162 -0.2839
vn -0.8912 -0.2282 0.3920
vn 0.2616 -0.7076 -0.6564
vn -0.2616 -0.7076 -0.6564
vn 0.2786 0.3995 0.8734
vn 0.9604 -0.1159 -0.2533
vn -0.2786 -0.3995 -0.8734
vn -0.9604 0.1159 0.2533
vn -0.0000 -0.9094 0.4159
vn 0.8912 -0.4458 -0.0838
vn 0.8912 -0.2282 0.3920
vn 0.2616 0.0337 0.9646
vn -0.2616 0.0337 0.9646
usemtl None
s off
f 41//1 15//1 4//1 16//1
f 40//2 18//2 8//2 19//2
f 39//3 21//3 6//3 22//3
f 38//4 24//4 2//4 14//4
f 13//5 3//5 45//5 42//5
f 37//6 29//6 9//6 25//6
f 36//7 25//7 9//7 28//7
f 35//8 31//8 12//8 28//8
f 34//9 30//9 10//9 26//9
f 33//10 32//10 11//10 27//10
f 31//10 33//10 27//10 12//10
f 6//11 21//11 33//11 31//11
f 21//12 8//12 32//12 33//12
f 32//9 34//9 26//9 11//9
f 8//13 18//13 34//13 32//13
f 18//14 4//14 30//14 34//14
f 29//8 35//8 28//8 9//8
f 2//15 24//15 35//15 29//15
f 24//16 6//16 31//16 35//16
f 27//7 36//7 28//7 12//7
f 11//7 26//7 36//7 27//7
f 26//7 10//7 25//7 36//7
f 30//6 37//6 25//6 10//6
f 4//17 15//17 37//17 30//17
f 15//18 2//18 29//18 37//18
f 1//19 13//19 42//19 43//19
f 17//20 7//20 47//20 44//20
f 3//21 17//21 44//21 45//21
f 23//4 38//4 14//4 1//4
f 5//22 22//22 38//22 23//22
f 22//22 6//22 24//22 38//22
f 20//3 39//3 22//3 5//3
f 7//23 19//23 39//23 20//23
f 19//23 8//23 21//23 39//23
f 17//2 40//2 19//2 7//2
f 3//24 16//24 40//24 17//24
f 16//24 4//24 18//24 40//24
f 13//1 41//1 16//1 3//1
f 1//25 14//25 41//25 13//25
f 14//25 2//25 15//25 41//25
f 50//26 46//26 49//26 48//26
f 42//26 50//26 48//26 43//26
f 45//26 44//26 50//26 42//26
f 44//26 47//26 46//26 50//26
f 7//27 20//27 46//27 47//27
f 20//28 5//28 49//28 46//28
f 5//29 23//29 48//29 49//29
f 23//30 1//30 43//30 48//30
