# Blender v2.79 (sub 0) OBJ File: 'DED.blend'
# www.blender.org
mtllib UpperHand.mtl
o Cube.007_Cube.008
v -2.005841 3.743624 0.660023
v -2.003975 4.276865 0.684559
v -1.996602 3.736521 0.142978
v -2.021027 4.271147 0.114667
v -1.490607 3.732010 0.651724
v -1.490434 4.287542 0.669117
v -1.487244 3.725482 0.127453
v -1.479397 4.273550 0.128484
v -2.115590 3.644686 0.400723
v -2.032848 4.005566 0.681178
v -2.113647 4.380688 0.419926
v -2.030686 4.004601 0.107902
v -1.743474 3.630331 0.019447
v -1.740172 4.384079 0.022650
v -1.458621 4.001805 0.097053
v -1.364921 3.614719 0.408869
v -1.365445 4.373283 0.411758
v -1.444071 4.011227 0.690226
v -1.754514 3.635811 0.767973
v -1.753862 4.386315 0.784648
v -1.735436 4.639766 0.387219
v -1.760074 3.359958 0.390391
v -1.745970 4.016178 0.802455
v -1.327507 3.998503 0.398208
v -1.724735 4.012009 0.007988
v -2.154194 4.011230 0.398300
v -2.063664 3.687623 0.529428
v -2.023996 4.153054 0.669427
v -2.066858 4.335515 0.264680
v -1.999102 3.871442 0.135539
v -1.876202 3.686488 0.075689
v -1.619874 4.326232 0.087164
v -1.467635 3.857217 0.127021
v -1.408259 3.694459 0.250328
v -1.423482 4.321694 0.533199
v -1.474202 3.878791 0.654156
v -1.608632 3.683296 0.720172
v -1.889525 4.323203 0.719903
v -2.065560 3.679479 0.272682
v -2.009112 3.874343 0.662257
v -2.049562 4.341668 0.513972
v -2.008856 4.140303 0.130656
v -1.601960 3.667538 0.085216
v -1.859290 4.331855 0.062928
v -1.461085 4.151192 0.140754
v -1.413411 3.696554 0.531341
v -1.434942 4.327775 0.255863
v -1.486780 4.153455 0.668038
v -1.875930 3.691988 0.717284
v -1.593260 4.336018 0.719004
v -1.733959 4.515515 0.598167
v -1.746140 4.527222 0.202661
v -1.544677 4.495675 0.408092
v -1.915654 4.507606 0.398146
v -1.742654 3.502805 0.561510
v -1.744494 3.519889 0.224314
v -1.930618 3.504304 0.399727
v -1.567159 3.506289 0.391783
v -1.888877 4.007341 0.745044
v -1.603247 3.993808 0.753973
v -1.743557 3.810802 0.786070
v -1.727525 4.214148 0.764943
v -1.379095 4.004026 0.540653
v -1.385010 3.989189 0.250487
v -1.348903 3.824264 0.404483
v -1.377823 4.193073 0.387353
v -1.597571 4.005491 0.041974
v -1.878926 4.003159 0.032620
v -1.739156 3.826478 0.010881
v -1.731115 4.194688 0.004949
v -2.081496 3.998252 0.240673
v -2.092235 3.987700 0.556167
v -2.110763 3.820209 0.391549
v -2.117235 4.198092 0.405714
v -2.072434 4.175208 0.532013
v -2.065834 3.846265 0.509973
v -2.077574 3.846422 0.262607
v -1.884074 4.186871 0.065646
v -1.887051 3.849733 0.084079
v -1.607874 3.851546 0.064620
v -1.417630 4.160055 0.281604
v -1.420551 3.848602 0.263898
v -1.399050 3.852799 0.519077
v -1.607536 4.168726 0.716234
v -1.619704 3.838818 0.725661
v -1.898063 3.850263 0.728604
v -1.581792 3.585906 0.227653
v -1.886435 3.598312 0.255601
v -1.900796 3.598784 0.563030
v -1.894003 4.421786 0.227402
v -1.585687 4.421043 0.237843
v -1.576716 4.416131 0.534385
v -1.902838 4.421184 0.552516
v -1.588340 3.591377 0.556647
v -1.875483 4.167172 0.710483
v -1.421880 4.170319 0.536806
v -1.609035 4.165174 0.093233
v -2.070834 4.165270 0.271259
vn -0.9413 -0.0506 -0.3336
vn 0.2874 -0.0324 -0.9573
vn 0.8950 0.0204 0.4456
vn -0.2614 -0.0788 0.9620
vn 0.5231 -0.6960 0.4919
vn -0.4878 0.7502 0.4464
vn 0.5244 0.7186 0.4568
vn 0.5652 0.6928 -0.4479
vn -0.5026 0.7605 -0.4111
vn -0.4833 -0.7337 0.4775
vn -0.5145 -0.6123 -0.6003
vn 0.4807 -0.7489 -0.4562
vn -0.4599 -0.1309 0.8783
vn 0.3773 -0.1285 0.9171
vn 0.3627 -0.0487 0.9306
vn 0.8587 -0.2433 0.4511
vn 0.8928 -0.1871 -0.4097
vn 0.9214 0.0116 -0.3884
vn 0.3823 -0.1843 -0.9055
vn -0.3111 -0.1303 -0.9414
vn -0.3587 0.0586 -0.9316
vn -0.8702 -0.1877 -0.4556
vn -0.9033 -0.2457 0.3517
vn -0.8860 0.0722 0.4581
vn -0.9161 0.1554 0.3696
vn -0.9177 0.1191 0.3790
vn -0.9350 0.1414 0.3253
vn -0.9339 0.0379 0.3554
vn -0.9274 0.0048 0.3741
vn -0.8750 -0.2586 0.4092
vn -0.8551 -0.0709 -0.5136
vn -0.9480 -0.0377 -0.3159
vn -0.9262 -0.1434 -0.3488
vn -0.2705 0.0701 -0.9602
vn -0.4680 0.1757 -0.8661
vn -0.3619 -0.0466 -0.9310
vn -0.4207 -0.0081 -0.9072
vn -0.4592 -0.0177 -0.8882
vn -0.4360 -0.2724 -0.8577
vn 0.3951 -0.0781 -0.9153
vn 0.4133 -0.0679 -0.9081
vn 0.3261 -0.0945 -0.9406
vn 0.8966 0.2246 -0.3817
vn 0.9140 0.1845 -0.3612
vn 0.9425 0.0730 -0.3261
vn 0.9334 -0.0005 -0.3590
vn 0.8995 -0.0029 -0.4370
vn 0.8995 -0.1996 -0.3886
vn 0.8494 -0.0693 0.5232
vn 0.9120 -0.0573 0.4061
vn 0.9152 -0.1341 0.3800
vn 0.3801 0.1691 0.9094
vn 0.3603 0.2245 0.9054
vn 0.3955 -0.0257 0.9181
vn 0.3873 -0.0655 0.9196
vn 0.4770 -0.0314 0.8783
vn 0.4324 -0.2633 0.8624
vn -0.4754 -0.0829 0.8759
vn -0.3914 -0.0939 0.9154
vn -0.3661 -0.0771 0.9274
vn 0.4411 -0.7270 -0.5262
vn 0.3773 -0.8014 -0.4640
vn 0.5160 -0.7020 -0.4909
vn -0.4668 -0.7259 -0.5051
vn -0.4619 -0.7517 -0.4707
vn -0.5033 -0.7618 -0.4079
vn -0.4956 -0.7020 0.5115
vn -0.5139 -0.7118 0.4788
vn -0.4803 -0.6818 0.5517
vn -0.5626 0.7144 -0.4162
vn -0.5249 0.6749 -0.5186
vn -0.4567 0.7468 -0.4834
vn 0.5104 0.7363 -0.4442
vn 0.4654 0.7186 -0.5168
vn 0.5614 0.6483 -0.5144
vn 0.5060 0.7623 0.4036
vn 0.4569 0.7067 0.5402
vn 0.5443 0.6952 0.4695
vn -0.5334 0.7163 0.4499
vn -0.5187 0.7317 0.4422
vn -0.4602 0.7270 0.5096
vn 0.4291 -0.7548 0.4961
vn 0.4909 -0.7184 0.4929
vn 0.4268 -0.7332 0.5294
vn -0.3410 0.1642 0.9256
vn -0.3863 0.2151 0.8970
vn -0.3429 -0.1248 0.9311
vn 0.8689 0.2755 0.4113
vn 0.9159 0.2491 0.3148
vn 0.9391 -0.0518 0.3397
vn 0.3380 0.2903 -0.8952
vn 0.4527 0.1475 -0.8794
vn 0.5474 0.0588 -0.8348
vn -0.9077 0.1654 -0.3857
vn -0.9042 0.1640 -0.3944
vn -0.9495 0.0271 -0.3127
usemtl None
s off
f 98//1 29//1 4//1 42//1
f 97//2 32//2 8//2 45//2
f 96//3 35//3 6//3 48//3
f 95//4 38//4 2//4 28//4
f 94//5 46//5 5//5 37//5
f 93//6 41//6 2//6 38//6
f 92//7 51//7 20//7 50//7
f 91//8 52//8 21//8 53//8
f 90//9 29//9 11//9 54//9
f 89//10 55//10 19//10 49//10
f 88//11 56//11 22//11 57//11
f 87//12 34//12 16//12 58//12
f 86//13 59//13 10//13 40//13
f 85//14 60//14 23//14 61//14
f 84//15 50//15 20//15 62//15
f 83//16 63//16 18//16 36//16
f 82//17 64//17 24//17 65//17
f 81//18 47//18 17//18 66//18
f 80//19 67//19 15//19 33//19
f 79//20 68//20 25//20 69//20
f 78//21 44//21 14//21 70//21
f 77//22 71//22 12//22 30//22
f 76//23 72//23 26//23 73//23
f 75//24 41//24 11//24 74//24
f 72//25 75//25 74//25 26//25
f 10//26 28//26 75//26 72//26
f 28//27 2//27 41//27 75//27
f 27//28 76//28 73//28 9//28
f 1//29 40//29 76//29 27//29
f 40//30 10//30 72//30 76//30
f 39//31 77//31 30//31 3//31
f 9//32 73//32 77//32 39//32
f 73//33 26//33 71//33 77//33
f 68//34 78//34 70//34 25//34
f 12//35 42//35 78//35 68//35
f 42//36 4//36 44//36 78//36
f 31//37 79//37 69//37 13//37
f 3//38 30//38 79//38 31//38
f 30//39 12//39 68//39 79//39
f 43//40 80//40 33//40 7//40
f 13//41 69//41 80//41 43//41
f 69//42 25//42 67//42 80//42
f 64//43 81//43 66//43 24//43
f 15//44 45//44 81//44 64//44
f 45//45 8//45 47//45 81//45
f 34//46 82//46 65//46 16//46
f 7//47 33//47 82//47 34//47
f 33//48 15//48 64//48 82//48
f 46//49 83//49 36//49 5//49
f 16//50 65//50 83//50 46//50
f 65//51 24//51 63//51 83//51
f 60//52 84//52 62//52 23//52
f 18//53 48//53 84//53 60//53
f 48//54 6//54 50//54 84//54
f 37//55 85//55 61//55 19//55
f 5//56 36//56 85//56 37//56
f 36//57 18//57 60//57 85//57
f 49//58 86//58 40//58 1//58
f 19//59 61//59 86//59 49//59
f 61//60 23//60 59//60 86//60
f 56//61 87//61 58//61 22//61
f 13//62 43//62 87//62 56//62
f 43//63 7//63 34//63 87//63
f 39//64 88//64 57//64 9//64
f 3//65 31//65 88//65 39//65
f 31//66 13//66 56//66 88//66
f 27//67 89//67 49//67 1//67
f 9//68 57//68 89//68 27//68
f 57//69 22//69 55//69 89//69
f 52//70 90//70 54//70 21//70
f 14//71 44//71 90//71 52//71
f 44//72 4//72 29//72 90//72
f 47//73 91//73 53//73 17//73
f 8//74 32//74 91//74 47//74
f 32//75 14//75 52//75 91//75
f 35//76 92//76 50//76 6//76
f 17//77 53//77 92//77 35//77
f 53//78 21//78 51//78 92//78
f 51//79 93//79 38//79 20//79
f 21//80 54//80 93//80 51//80
f 54//81 11//81 41//81 93//81
f 55//82 94//82 37//82 19//82
f 22//83 58//83 94//83 55//83
f 58//84 16//84 46//84 94//84
f 59//85 95//85 28//85 10//85
f 23//86 62//86 95//86 59//86
f 62//87 20//87 38//87 95//87
f 63//88 96//88 48//88 18//88
f 24//89 66//89 96//89 63//89
f 66//90 17//90 35//90 96//90
f 67//91 97//91 45//91 15//91
f 25//92 70//92 97//92 67//92
f 70//93 14//93 32//93 97//93
f 71//94 98//94 42//94 12//94
f 26//95 74//95 98//95 71//95
f 74//96 11//96 29//96 98//96
