# Blender v2.79 (sub 0) OBJ File: 'DED.blend'
# www.blender.org
mtllib LowerLeg.mtl
o Cube.002_Cube.003
v -1.008542 0.042026 0.154139
v -1.008542 0.715191 0.771731
v -1.008542 0.544587 -0.393645
v -1.008542 1.217753 0.223946
v -0.265146 0.042026 0.154139
v -0.265146 0.715191 0.771731
v -0.265146 0.544587 -0.393645
v -0.265146 1.217753 0.223946
v -0.778389 1.053530 0.769799
v -0.778389 1.244909 0.561199
v -0.495299 1.244909 0.561199
v -0.495299 1.053530 0.769799
v -1.116351 0.290505 -0.122323
v -1.008542 0.378608 0.462935
v -1.116351 0.969273 0.500409
v -1.008542 0.881170 -0.084850
v -0.636844 0.614669 -0.475657
v -0.636844 1.293437 0.147075
v -0.265146 0.881170 -0.084850
v -0.157337 0.290505 -0.122323
v -0.157337 0.969273 0.500409
v -0.265146 0.378608 0.462935
v -0.636844 -0.033659 0.231011
v -0.636844 0.645109 0.853743
v -0.778389 1.149219 0.665499
v -0.636844 1.244909 0.561199
v -0.495299 1.149219 0.665499
v -0.636844 1.053530 0.769799
v -0.965147 0.799326 0.790029
v -0.965147 1.243215 0.306197
v -0.308541 0.799326 0.790029
v -0.308541 1.243215 0.306197
v -0.308541 1.021270 0.548113
v -0.636844 1.243215 0.306197
v -0.636844 0.799326 0.790029
v -0.636844 1.149219 0.665499
v -0.965147 1.021270 0.548113
v -0.636844 0.305725 0.542377
v -0.157337 0.629889 0.189043
v -0.636844 0.954053 -0.164291
v -1.116351 0.629889 0.189043
v -0.982404 -0.001239 -0.389982
v -0.904711 -0.180308 -0.190747
v -0.636844 0.232372 -0.644615
v -0.904711 0.181867 -0.585512
v -0.291284 -0.001239 -0.389982
v -0.368978 0.181867 -0.585512
v -0.636844 -0.234850 -0.135350
v -0.368978 -0.180308 -0.190747
v -0.636844 0.000780 -0.388130
vn -0.9604 0.1883 -0.2053
vn 0.2786 0.6493 -0.7077
vn 0.9604 -0.1883 0.2053
vn -0.2786 -0.6493 0.7077
vn -0.9126 -0.0464 -0.4061
vn -0.6809 0.5397 0.4951
vn 0.0000 0.7369 0.6760
vn 0.0000 0.0793 0.9968
vn 0.0000 1.0000 -0.0066
vn 0.6809 0.5397 0.4951
vn 0.5811 0.5322 0.6157
vn 0.5811 0.6591 0.4773
vn 0.0939 0.9885 0.1183
vn -0.0939 0.9885 0.1183
vn -0.0939 0.2028 0.9747
vn 0.0939 0.2028 0.9747
vn -0.5811 0.6591 0.4773
vn -0.5811 0.5322 0.6157
vn -0.9126 -0.4086 -0.0114
vn 0.2679 0.3895 -0.8812
vn -0.2679 0.3895 -0.8812
vn 0.2786 -0.6493 0.7077
vn 0.9604 0.1883 -0.2053
vn -0.2786 0.6493 -0.7077
vn -0.9604 -0.1883 0.2053
vn 0.0000 -0.7369 -0.6760
vn 0.9126 -0.0464 -0.4061
vn 0.9126 -0.4086 -0.0114
vn 0.2679 -0.8445 0.4638
vn -0.2679 -0.8445 0.4638
usemtl None
s off
f 41//1 15//1 4//1 16//1
f 40//2 18//2 8//2 19//2
f 39//3 21//3 6//3 22//3
f 38//4 24//4 2//4 14//4
f 13//5 3//5 45//5 42//5
f 37//6 29//6 9//6 25//6
f 36//7 25//7 9//7 28//7
f 35//8 31//8 12//8 28//8
f 34//9 30//9 10//9 26//9
f 33//10 32//10 11//10 27//10
f 31//10 33//10 27//10 12//10
f 6//11 21//11 33//11 31//11
f 21//12 8//12 32//12 33//12
f 32//9 34//9 26//9 11//9
f 8//13 18//13 34//13 32//13
f 18//14 4//14 30//14 34//14
f 29//8 35//8 28//8 9//8
f 2//15 24//15 35//15 29//15
f 24//16 6//16 31//16 35//16
f 27//7 36//7 28//7 12//7
f 11//7 26//7 36//7 27//7
f 26//7 10//7 25//7 36//7
f 30//6 37//6 25//6 10//6
f 4//17 15//17 37//17 30//17
f 15//18 2//18 29//18 37//18
f 1//19 13//19 42//19 43//19
f 17//20 7//20 47//20 44//20
f 3//21 17//21 44//21 45//21
f 23//4 38//4 14//4 1//4
f 5//22 22//22 38//22 23//22
f 22//22 6//22 24//22 38//22
f 20//3 39//3 22//3 5//3
f 7//23 19//23 39//23 20//23
f 19//23 8//23 21//23 39//23
f 17//2 40//2 19//2 7//2
f 3//24 16//24 40//24 17//24
f 16//24 4//24 18//24 40//24
f 13//1 41//1 16//1 3//1
f 1//25 14//25 41//25 13//25
f 14//25 2//25 15//25 41//25
f 50//26 46//26 49//26 48//26
f 42//26 50//26 48//26 43//26
f 45//26 44//26 50//26 42//26
f 44//26 47//26 46//26 50//26
f 7//27 20//27 46//27 47//27
f 20//28 5//28 49//28 46//28
f 5//29 23//29 48//29 49//29
f 23//30 1//30 43//30 48//30
