# Blender v2.79 (sub 0) OBJ File: ''
# www.blender.org
mtllib Head2.mtl
o Sphere.001_Sphere.002
v 0.587905 0.217877 0.497276
v 0.449963 -0.040787 0.248603
v 0.243518 -0.173157 -0.037917
v 0.000000 0.131647 0.753767
v 0.000000 -0.106785 0.444913
v 0.000000 -0.208874 0.068325
v -0.587905 0.217877 0.497276
v -0.449963 -0.040787 0.248603
v -0.243518 -0.173157 -0.037917
v 0.449963 0.107881 -0.193609
v 0.587905 0.366545 0.055064
v 0.243518 -0.024489 -0.480129
v -0.587905 0.366545 0.055064
v -0.449963 0.107881 -0.193609
v -0.243518 -0.024489 -0.480129
vn 0.3750 -0.9190 -0.1213
vn 0.6560 -0.7360 0.1672
vn 0.0000 -0.8793 0.4762
vn 0.0000 -0.9991 0.0434
vn 0.7549 0.2037 0.6234
vn 0.0000 0.0815 0.9966
vn -0.6560 -0.7360 0.1672
vn -0.3750 -0.9190 -0.1213
vn -0.7549 0.2037 0.6234
vn 0.8030 -0.5649 -0.1899
vn 0.9165 0.3792 0.1274
vn -0.8030 -0.5649 -0.1899
vn -0.2886 -0.9075 -0.3051
vn -0.9165 0.3792 0.1274
vn 0.2886 -0.9075 -0.3051
usemtl None
s 1
f 3//1 2//2 5//3 6//4
f 2//2 1//5 4//6 5//3
f 6//4 5//3 8//7 9//8
f 5//3 4//6 7//9 8//7
f 1//5 2//2 10//10 11//11
f 9//8 8//7 14//12 15//13
f 8//7 7//9 13//14 14//12
f 2//2 3//1 12//15 10//10
f 3//1 6//4 9//8 15//13 12//15
f 4//6 1//5 11//11 13//14 7//9
